<svg xmlns="http://www.w3.org/2000/svg" viewBox="-7 0 110 110"><mask id="e" maskUnits="userSpaceOnUse" x="0" y="0" width="96" height="110"><rect width="96" height="110" fill="#fff"/><g stroke="#000" stroke-width="7" stroke-linecap="round"><line x1="30.5" y1="48.5" x2="41.5" y2="59.5"/><line x1="41.5" y1="48.5" x2="30.5" y2="59.5"/><line x1="54.5" y1="48.5" x2="65.5" y2="59.5"/><line x1="65.5" y1="48.5" x2="54.5" y2="59.5"/></g></mask><g stroke="#fb6b4c" stroke-width="6.5" stroke-linecap="round"><line x1="34" y1="26" x2="27" y2="8"/><line x1="62" y1="26" x2="69" y2="8"/><line x1="34" y1="83" x2="28" y2="103"/><line x1="62" y1="83" x2="68" y2="103"/></g><path d="M32 24 H64 A17 17 0 0 1 81 41 V48 H88 V62 H81 V67 A17 17 0 0 1 64 84 H32 A17 17 0 0 1 15 67 V62 H8 V48 H15 V41 A17 17 0 0 1 32 24 Z" fill="#fb6b4c" stroke="#fb6b4c" stroke-width="6" stroke-linejoin="round" mask="url(#e)"/></svg>
